# xmcd
#
# Track frame offsets:
#	150
#	16169
#	35777
#	52478
#	70064
#	88005
#	107972
#	127367
#	145760
#	166198
#	179771
#
# Disc length: 2610 seconds
#
# Revision: 1
# Processed by: cddbd v1.5.2PL0 Copyright (c) Steve Scherf et al.
# Submitted via: EZCDAudioConverter 7.1.5.1
#
DISCID=a80a300b
DTITLE=陈慧琳 - 我是阳光的
DYEAR=2005
DGENRE=
TTITLE0=自由
TTITLE1=穿越时空遇见你
TTITLE2=两个世界
TTITLE3=糖衣与巧克力
TTITLE4=我是阳光的
TTITLE5=再见北极雪
TTITLE6=短消息
TTITLE7=你太冷静
TTITLE8=今生你作伴 - 电视剧《白蛇传》插曲 
TTITLE9=希望 - 电视剧《大长今》主题曲
TTITLE10=思念 - 电视剧《大长今》插曲
EXTD=
EXTT0=
EXTT1=
EXTT2=
EXTT3=
EXTT4=
EXTT5=
EXTT6=
EXTT7=
EXTT8=
EXTT9=
EXTT10=
PLAYORDER=
